<svg xmlns="http://www.w3.org/2000/svg" version="1.1" xmlns:xlink="http://www.w3.org/1999/xlink" xmlns:svgjs="http://svgjs.dev/svgjs" width="1440" height="560" preserveAspectRatio="none" viewBox="0 0 1440 560"><g mask="url(&quot;#SvgjsMask1028&quot;)" fill="none"><rect width="1440" height="560" x="0" y="0" fill="url(&quot;#SvgjsLinearGradient1029&quot;)"></rect><circle r="46.666666666666664" cx="689.41" cy="308.02" stroke="#037b0b" stroke-width="1" stroke-dasharray="3, 3"></circle><path d="M519.58 434.4a5.6 5.6 0 1 0-8.43-7.37 5.6 5.6 0 1 0 8.43 7.37zM507.54 423.87a5.6 5.6 0 1 0-8.43-7.38 5.6 5.6 0 1 0 8.43 7.38zM495.5 413.33a5.6 5.6 0 1 0-8.43-7.37 5.6 5.6 0 1 0 8.43 7.37zM483.45 402.8a5.6 5.6 0 1 0-8.43-7.38 5.6 5.6 0 1 0 8.43 7.38zM554.2 443.43a5.6 5.6 0 1 0-8.43-7.37 5.6 5.6 0 1 0 8.43 7.37zM542.16 432.89a5.6 5.6 0 1 0-8.43-7.37 5.6 5.6 0 1 0 8.43 7.37zM530.12 422.36a5.6 5.6 0 1 0-8.43-7.37 5.6 5.6 0 1 0 8.43 7.37zM518.07 411.83a5.6 5.6 0 1 0-8.43-7.38 5.6 5.6 0 1 0 8.43 7.38z" fill="#d3b714"></path><path d="M192.3 259.02a5.6 5.6 0 1 0 9.65 5.68 5.6 5.6 0 1 0-9.65-5.68zM206.09 267.14a5.6 5.6 0 1 0 9.65 5.68 5.6 5.6 0 1 0-9.65-5.68zM219.88 275.25a5.6 5.6 0 1 0 9.65 5.69 5.6 5.6 0 1 0-9.65-5.69zM233.67 283.37a5.6 5.6 0 1 0 9.65 5.68 5.6 5.6 0 1 0-9.65-5.68zM156.61 256.58a5.6 5.6 0 1 0 9.65 5.68 5.6 5.6 0 1 0-9.65-5.68zM170.4 264.7a5.6 5.6 0 1 0 9.65 5.68 5.6 5.6 0 1 0-9.65-5.68zM184.18 272.81a5.6 5.6 0 1 0 9.66 5.68 5.6 5.6 0 1 0-9.66-5.68zM197.97 280.93a5.6 5.6 0 1 0 9.66 5.68 5.6 5.6 0 1 0-9.66-5.68zM120.91 254.14a5.6 5.6 0 1 0 9.65 5.68 5.6 5.6 0 1 0-9.65-5.68zM134.7 262.25a5.6 5.6 0 1 0 9.65 5.68 5.6 5.6 0 1 0-9.65-5.68zM148.49 270.37a5.6 5.6 0 1 0 9.65 5.68 5.6 5.6 0 1 0-9.65-5.68zM162.28 278.48a5.6 5.6 0 1 0 9.65 5.69 5.6 5.6 0 1 0-9.65-5.69z" stroke="#d3b714" stroke-width="1" stroke-dasharray="2, 2"></path><rect width="336" height="336" clip-path="url(&quot;#SvgjsClipPath1030&quot;)" x="-158.9" y="-156.61" fill="url(&quot;#SvgjsPattern1031&quot;)" transform="rotate(81.84, 9.1, 11.39)"></rect><path d="M889.75 444.33 L845.43 381.86L821.8147793710518 458.8702206289482z" stroke="#e73635" stroke-width="1.31" stroke-dasharray="3, 3"></path><rect width="180" height="180" clip-path="url(&quot;#SvgjsClipPath1032&quot;)" x="968.81" y="327.99" fill="url(&quot;#SvgjsPattern1033&quot;)" transform="rotate(15.43, 1058.81, 417.99)"></rect><circle r="46.666666666666664" cx="801.56" cy="142.06" stroke="#d3b714" stroke-width="1" stroke-dasharray="4, 4"></circle><circle r="61.03969383584506" cx="275.95" cy="287.29" stroke="#037b0b" stroke-width="1.81" stroke-dasharray="4, 4"></circle><rect width="108" height="108" clip-path="url(&quot;#SvgjsClipPath1034&quot;)" x="139.64" y="200.63" fill="url(&quot;#SvgjsPattern1035&quot;)" transform="rotate(154.34, 193.64, 254.63)"></rect><rect width="144" height="144" clip-path="url(&quot;#SvgjsClipPath1036&quot;)" x="883.68" y="49.04" fill="url(&quot;#SvgjsPattern1037&quot;)" transform="rotate(52.39, 955.68, 121.04)"></rect><path d="M1024.78 414.78L1012.05 416.12 1007.95 403.98 995.21 405.32 991.11 393.19 978.38 394.53 974.28 382.39" stroke="#e73635" stroke-width="1.21" stroke-dasharray="3, 2"></path><path d="M593.0799999999999 512.67 L444.03 448.57L409.1488138900295 590.0261861099705z" stroke="#d3b714" stroke-width="2.8" stroke-dasharray="3, 2"></path></g><defs><mask id="SvgjsMask1028"><rect width="1440" height="560" fill="#ffffff"></rect></mask><linearGradient x1="15.28%" y1="-39.29%" x2="84.72%" y2="139.29%" gradientUnits="userSpaceOnUse" id="SvgjsLinearGradient1029"><stop stop-color="#0e2a47" offset="0"></stop><stop stop-color="#00459e" offset="1"></stop></linearGradient><pattern x="0" y="0" width="336" height="6" patternUnits="userSpaceOnUse" id="SvgjsPattern1031"><rect width="336" height="3" x="0" y="0" fill="#d3b714"></rect><rect width="336" height="3" x="0" y="3" fill="rgba(0, 0, 0, 0)"></rect></pattern><clipPath id="SvgjsClipPath1030"><circle r="84" cx="9.1" cy="11.39"></circle></clipPath><pattern x="0" y="0" width="6" height="6" patternUnits="userSpaceOnUse" id="SvgjsPattern1033"><path d="M0 6L3 0L6 6" stroke="#d3b714" fill="none"></path></pattern><clipPath id="SvgjsClipPath1032"><circle r="45" cx="1058.81" cy="417.99"></circle></clipPath><pattern x="0" y="0" width="6" height="6" patternUnits="userSpaceOnUse" id="SvgjsPattern1035"><path d="M0 6L3 0L6 6" stroke="#e73635" fill="none"></path></pattern><clipPath id="SvgjsClipPath1034"><circle r="27" cx="193.64" cy="254.63"></circle></clipPath><pattern x="0" y="0" width="6" height="6" patternUnits="userSpaceOnUse" id="SvgjsPattern1037"><path d="M3 1L3 5M1 3L5 3" stroke="#e73635" fill="none" stroke-width="1"></path></pattern><clipPath id="SvgjsClipPath1036"><circle r="36" cx="955.68" cy="121.04"></circle></clipPath></defs></svg>